Coordinates
version=1
nRows=40
nColumns=38
inDegrees=no

Units are S.I. units (second, meters, Newtons, ...)
If the header above contains a line with 'inDegrees', this indicates whether rotational values are in degrees (yes) or radians (no).

endheader
time	pelvis_tilt	pelvis_list	pelvis_rotation	pelvis_tx	pelvis_ty	pelvis_tz	hip_flexion_r	hip_adduction_r	hip_rotation_r	knee_angle_r	ankle_angle_r	subtalar_angle_r	mtp_angle_r	hip_flexion_l	hip_adduction_l	hip_rotation_l	knee_angle_l	ankle_angle_l	subtalar_angle_l	mtp_angle_l	lumbar_extension	lumbar_bending	lumbar_rotation	arm_flex_r	arm_add_r	arm_rot_r	elbow_flex_r	pro_sup_r	wrist_flex_r	wrist_dev_r	arm_flex_l	arm_add_l	arm_rot_l	elbow_flex_l	pro_sup_l	wrist_flex_l	wrist_dev_l
0	-0.0280792	1.33346	-1.49275	0.749249	1.753	0.947214	-0.408766	0.0700155	-0.205859	0.0690841	-0.125678	0	0	0.167707	-0.175374	-0.485101	0.7371	-0.149561	0	0	-0.40752	-0.0237145	-0.128096	-0.0469464	-0.402653	0.600586	0.766144	0.868168	0	0	-0.376171	-0.333878	-0.0931165	1.02738	1.55677	0	0
0.01	-0.0427324	1.34096	-1.47655	0.749628	1.74367	0.945225	-0.415938	0.0748012	-0.196478	0.0612497	-0.121164	0	0	0.180395	-0.173738	-0.501938	0.689412	-0.152697	0	0	-0.401377	-0.0209771	-0.127367	-0.0497192	-0.398652	0.587541	0.764225	0.878865	0	0	-0.376825	-0.329586	-0.0975656	1.02324	1.55714	0	0
0.02	-0.0545769	1.34548	-1.46332	0.750104	1.73409	0.943317	-0.422134	0.0786588	-0.197465	0.0608007	-0.117147	0	0	0.187228	-0.170272	-0.518413	0.640359	-0.154023	0	0	-0.398205	-0.0194504	-0.126396	-0.0530811	-0.395451	0.574716	0.763583	0.888592	0	0	-0.379032	-0.328491	-0.099526	1.02082	1.55572	0	0
0.03	-0.0649168	1.3532	-1.4497	0.75085	1.72414	0.941233	-0.424769	0.0819685	-0.203247	0.0618754	-0.110714	0	0	0.195979	-0.163295	-0.528032	0.59092	-0.152631	0	0	-0.392888	-0.0185515	-0.118353	-0.0898648	-0.35825	0.440882	0.759657	1.03028	0	0	-0.373864	-0.335477	-0.0825129	1.01628	1.54463	0	0
0.04	-0.10387	1.32117	-1.39453	0.753156	1.71443	0.943638	-0.514911	0.107567	-0.212065	0	-0.140888	0	0	0.159545	-0.165342	-0.525812	0.53418	-0.147876	0	0	-0.426995	0.00213524	-0.140971	-0.0423669	-0.401662	0.592493	0.762583	0.867106	0	0	-0.381742	-0.319218	-0.11368	1.01569	1.56536	0	0
0.05	-0.110035	1.32744	-1.38535	0.754117	1.70452	0.941691	-0.516857	0.107829	-0.216454	0	-0.140527	0	0	0.163196	-0.152915	-0.523385	0.486645	-0.135875	0	0	-0.421535	0.00270844	-0.141942	-0.0441989	-0.399604	0.585765	0.759344	0.872557	0	0	-0.382573	-0.317516	-0.115067	1.01115	1.56705	0	0
0.06	-0.110871	1.33348	-1.38108	0.755085	1.69457	0.939974	-0.516618	0.106825	-0.227805	0.0107369	-0.135052	0	0	0.162709	-0.133248	-0.501088	0.429306	-0.122364	0	0	-0.415846	0.00110722	-0.144064	-0.039689	-0.399939	0.598161	0.75178	0.856984	0	0	-0.383686	-0.319099	-0.11374	1.00447	1.56539	0	0
0.07	-0.111087	1.33808	-1.37907	0.755896	1.68459	0.93851	-0.516659	0.105028	-0.237824	0.025246	-0.127209	0	0	0.157997	-0.113824	-0.472863	0.370591	-0.114926	0	0	-0.411819	-0.000700474	-0.14515	-0.0354155	-0.39985	0.608812	0.744507	0.845517	0	0	-0.383847	-0.319014	-0.113685	0.997958	1.56538	0	0
0.08	-0.111184	1.34224	-1.37761	0.756691	1.67428	0.937162	-0.516541	0.102681	-0.248725	0.0421942	-0.119285	0	0	0.152115	-0.0970822	-0.44499	0.319114	-0.115216	0	0	-0.40774	-0.00248145	-0.146213	-0.0323367	-0.399347	0.617758	0.737579	0.83742	0	0	-0.384318	-0.318157	-0.11476	0.991568	1.56806	0	0
0.09	-0.111122	1.34585	-1.37632	0.757541	1.66362	0.935866	-0.516925	0.0999356	-0.261078	0.0603489	-0.112737	0	0	0.148348	-0.085435	-0.426229	0.287639	-0.118888	0	0	-0.403576	-0.00434189	-0.147052	-0.0314575	-0.398427	0.623001	0.731532	0.832276	0	0	-0.385403	-0.317809	-0.115171	0.985465	1.57075	0	0
0.1	-0.112094	1.34703	-1.37546	0.758301	1.65283	0.934733	-0.519459	0.0969074	-0.270579	0.0792003	-0.1083	0	0	0.146353	-0.0797741	-0.420614	0.281031	-0.122444	0	0	-0.401917	-0.00591193	-0.146424	-0.0321546	-0.398241	0.62494	0.728254	0.829143	0	0	-0.387043	-0.317792	-0.115517	0.980758	1.5708	0	0
0.11	-0.112549	1.34659	-1.37626	0.759052	1.64191	0.933738	-0.522331	0.0929592	-0.279187	0.101339	-0.10333	0	0	0.145368	-0.0775106	-0.42318	0.293414	-0.126187	0	0	-0.4018	-0.00737148	-0.144858	-0.0338582	-0.39925	0.626085	0.727225	0.826421	0	0	-0.388645	-0.31779	-0.115351	0.976813	1.5708	0	0
0.12	-0.112485	1.34757	-1.37818	0.759865	1.63058	0.932782	-0.522234	0.0873654	-0.289113	0.128241	-0.0926475	0	0	0.147588	-0.0777863	-0.434165	0.32218	-0.12796	0	0	-0.403773	-0.0098857	-0.128376	-0.0921171	-0.347186	0.417353	0.726356	1.04873	0	0	-0.379265	-0.327822	-0.0918476	0.973111	1.56472	0	0
0.13	-0.106999	1.34538	-1.38545	0.760798	1.61922	0.93211	-0.523599	0.0803434	-0.296313	0.152775	-0.0898745	0	0	0.143968	-0.0767389	-0.441025	0.350994	-0.129271	0	0	-0.403828	-0.0121883	-0.132178	-0.0749039	-0.371692	0.500953	0.727094	0.956929	0	0	-0.386225	-0.323258	-0.103526	0.970845	1.5708	0	0
0.14	-0.0906731	1.34312	-1.4034	0.761938	1.60754	0.931568	-0.523599	0.0666331	-0.319397	0.19384	-0.0841291	0	0	0.136895	-0.0718056	-0.446317	0.374374	-0.140594	0	0	-0.406023	-0.0169107	-0.123694	-0.0982561	-0.357638	0.434878	0.730588	1.02103	0	0	-0.383275	-0.329745	-0.0904204	0.968124	1.5708	0	0
0.15	-0.0801996	1.34299	-1.41569	0.763105	1.59553	0.931083	-0.523599	0.0574183	-0.324014	0.221089	-0.0878993	0	0	0.129234	-0.0653723	-0.441233	0.385369	-0.150613	0	0	-0.403894	-0.020612	-0.121402	-0.104525	-0.3573	0.428458	0.729038	1.02561	0	0	-0.384833	-0.330312	-0.0885473	0.965207	1.5708	0	0
0.16	-0.0702134	1.34369	-1.42695	0.764413	1.58326	0.93066	-0.523599	0.0493387	-0.326761	0.249863	-0.0932021	0	0	0.12242	-0.059204	-0.436408	0.390962	-0.165864	0	0	-0.400288	-0.0243912	-0.11956	-0.111255	-0.356798	0.422408	0.726706	1.03039	0	0	-0.387044	-0.331058	-0.0868819	0.962344	1.5708	0	0
0.17	-0.0588211	1.34467	-1.43785	0.766012	1.57085	0.93033	-0.523599	0.0405355	-0.329709	0.279031	-0.0993106	0	0	0.116995	-0.0537816	-0.433009	0.394613	-0.183867	0	0	-0.39619	-0.0284832	-0.119057	-0.118441	-0.356065	0.416193	0.724022	1.03477	0	0	-0.390417	-0.332753	-0.0864264	0.959488	1.5708	0	0
0.18	-0.0500603	1.34509	-1.44582	0.767681	1.55846	0.930199	-0.523599	0.0321559	-0.327788	0.304491	-0.103182	0	0	0.111527	-0.0507569	-0.430447	0.399299	-0.191081	0	0	-0.389557	-0.0308485	-0.126814	-0.0921899	-0.394222	0.549131	0.724547	0.885762	0	0	-0.398968	-0.329921	-0.0947648	0.956156	1.5708	0	0
0.19	-0.0382651	1.34605	-1.45699	0.769466	1.546	0.930271	-0.523584	0.0203119	-0.332368	0.34394	-0.112751	0	0	0.106236	-0.0486491	-0.432422	0.405508	-0.212406	0	0	-0.385242	-0.0340692	-0.127357	-0.0981612	-0.396371	0.54938	0.723686	0.882852	0	0	-0.40145	-0.328388	-0.0983495	0.95449	1.5708	0	0
0.2	-0.0316662	1.34813	-1.4629	0.771432	1.53349	0.930445	-0.513584	0.00888982	-0.332916	0.387705	-0.126059	0	0	0.10255	-0.0484572	-0.435239	0.415742	-0.22712	0	0	-0.379562	-0.0358557	-0.127808	-0.104453	-0.398646	0.548107	0.722658	0.880916	0	0	-0.403413	-0.32595	-0.102201	0.952719	1.5708	0	0
0.21	-0.0283939	1.3522	-1.46506	0.77355	1.52085	0.930767	-0.498842	-0.00297168	-0.330675	0.435468	-0.148169	0	0	0.100854	-0.0490096	-0.436651	0.428896	-0.240761	0	0	-0.374959	-0.037056	-0.117646	-0.153398	-0.350396	0.365891	0.717859	1.0766	0	0	-0.396257	-0.328282	-0.0931266	0.94994	1.5708	0	0
0.22	-0.0260442	1.35285	-1.46633	0.775716	1.5085	0.931555	-0.485049	-0.0150352	-0.323582	0.485772	-0.181684	0	0	0.0943154	-0.0492991	-0.436228	0.441433	-0.24712	0	0	-0.368884	-0.036766	-0.124404	-0.139521	-0.376538	0.447792	0.71664	0.987607	0	0	-0.401002	-0.321938	-0.104077	0.9469	1.5708	0	0
0.23	-0.0283904	1.36161	-1.46726	0.777782	1.49716	0.932218	-0.479973	-0.030804	-0.18278	0.503467	-0.199498	0	0	0.0957693	-0.0461041	-0.428242	0.448556	-0.24587	0	0	-0.358371	-0.036947	-0.122357	-0.140949	-0.376472	0.442593	0.709732	0.996602	0	0	-0.397471	-0.317842	-0.106478	0.940843	1.5708	0	0
0.24	-0.00818706	1.3544	-1.4796	0.780201	1.48456	0.933849	-0.445723	-0.0447763	-0.303352	0.603175	-0.248921	0	0	0.0761869	-0.041472	-0.426158	0.454789	-0.237674	0	0	-0.362531	-0.0383632	-0.131861	-0.148459	-0.375784	0.432301	0.711876	1.00838	0	0	-0.402218	-0.318643	-0.110633	0.947112	1.5708	0	0
0.25	-0.00339891	1.36068	-1.48668	0.781902	1.47375	0.935014	-0.429869	-0.0574847	-0.189156	0.632956	-0.276957	0	0	0.0725157	-0.0371906	-0.421862	0.458421	-0.231149	0	0	-0.355548	-0.0397127	-0.132208	-0.147602	-0.37418	0.42729	0.705171	1.01719	0	0	-0.398538	-0.318185	-0.110497	0.944991	1.5708	0	0
0.26	0.0184017	1.3594	-1.50614	0.783705	1.46258	0.936475	-0.400159	-0.0729328	-0.194429	0.702945	-0.308382	0	0	0.0579319	-0.0304363	-0.421029	0.459175	-0.2257	0	0	-0.355688	-0.0431118	-0.138347	-0.147152	-0.378021	0.435639	0.706451	1.00725	0	0	-0.39901	-0.320896	-0.110523	0.950274	1.5708	0	0
0.27	0.0467897	1.35489	-1.52897	0.785783	1.45128	0.938006	-0.364577	-0.0916375	-0.256834	0.788381	-0.354095	0	0	0.0376094	-0.0219276	-0.419486	0.455862	-0.219441	0	0	-0.358929	-0.0469258	-0.148789	-0.147862	-0.382273	0.442689	0.711009	0.999509	0	0	-0.401938	-0.324348	-0.111998	0.959852	1.5708	0	0
0.28	0.0847113	1.3625	-1.56587	0.786472	1.44005	0.937778	-0.3371	-0.0849177	-0.25641	0.809708	-0.385191	0	0	0.0315591	-0.0139131	-0.420411	0.457237	-0.209239	0	0	-0.347937	-0.0565739	-0.155666	-0.150493	-0.383775	0.448929	0.715298	0.994481	0	0	-0.408498	-0.331409	-0.113643	0.973262	1.5708	0	0
0.29	0.0911942	1.35947	-1.5682	0.78841	1.42946	0.939193	-0.308573	-0.0938672	-0.261731	0.863693	-0.419846	0	0	0.0124	-0.0113848	-0.4187	0.452501	-0.201249	0	0	-0.350829	-0.0555706	-0.164044	-0.149528	-0.388975	0.454971	0.720437	0.990311	0	0	-0.407954	-0.335774	-0.111852	0.982594	1.5708	0	0
0.3	0.0920016	1.35774	-1.566	0.790113	1.41918	0.940328	-0.278	-0.101731	-0.262266	0.914921	-0.455282	0	0	-0.00496719	-0.0104046	-0.417281	0.446609	-0.19471	0	0	-0.352846	-0.0536018	-0.17137	-0.148539	-0.395014	0.4603	0.727606	0.986288	0	0	-0.40676	-0.340421	-0.110097	0.993184	1.5708	0	0
0.31	0.0846511	1.35715	-1.55619	0.791661	1.40913	0.941459	-0.24593	-0.107355	-0.259912	0.961634	-0.50599	0	0	-0.0205049	-0.011663	-0.415291	0.440116	-0.188349	0	0	-0.355513	-0.0496233	-0.168512	-0.175624	-0.367732	0.348667	0.734269	1.10957	0	0	-0.39557	-0.353929	-0.087504	1.00143	1.56037	0	0
0.32	0.0695313	1.35437	-1.53913	0.793098	1.39946	0.9428	-0.21589	-0.110831	-0.255634	1.00854	-0.510359	0	0	-0.0378827	-0.015309	-0.413607	0.433456	-0.184657	0	0	-0.358331	-0.0442894	-0.182709	-0.149178	-0.40042	0.446633	0.74056	1.00765	0	0	-0.398187	-0.34971	-0.105189	1.01164	1.5708	0	0
0.33	0.0494734	1.35133	-1.51749	0.794434	1.39	0.944303	-0.187795	-0.113213	-0.251282	1.05164	-0.490255	0	0	-0.0556333	-0.0199728	-0.412336	0.425494	-0.182388	0	0	-0.362994	-0.0376097	-0.187633	-0.147411	-0.402818	0.43992	0.745902	1.01768	0	0	-0.391565	-0.354802	-0.101908	1.01972	1.5708	0	0
0.34	0.0279975	1.34739	-1.49437	0.795759	1.38079	0.945979	-0.161618	-0.113375	-0.249259	1.09856	-0.434928	0	0	-0.0745052	-0.0251005	-0.411967	0.417282	-0.180008	0	0	-0.368944	-0.0303729	-0.191742	-0.145798	-0.403886	0.429429	0.750453	1.03343	0	0	-0.38299	-0.361812	-0.095484	1.02702	1.5708	0	0
0.35	0.0078574	1.34376	-1.4727	0.796995	1.37172	0.947647	-0.135515	-0.114216	-0.245223	1.1309	-0.395193	0	0	-0.0935194	-0.0297746	-0.411036	0.408779	-0.176723	0	0	-0.374297	-0.023582	-0.19552	-0.14309	-0.404506	0.420385	0.753255	1.04838	0	0	-0.373382	-0.370162	-0.0870621	1.03295	1.5708	0	0
0.36	-0.0130176	1.34101	-1.45045	0.798145	1.36268	0.949225	-0.109225	-0.113894	-0.241376	1.15553	-0.38166	0	0	-0.111826	-0.0344293	-0.410746	0.400326	-0.174241	0	0	-0.378168	-0.0160961	-0.2012	-0.135265	-0.410137	0.42881	0.755561	1.04483	0	0	-0.363513	-0.374572	-0.0841398	1.03763	1.5708	0	0
0.37	-0.0361399	1.34019	-1.42655	0.799184	1.35354	0.950597	-0.0820504	-0.112695	-0.238547	1.17424	-0.363151	0	0	-0.127946	-0.0393253	-0.41178	0.392264	-0.170926	0	0	-0.379214	-0.00848202	-0.20522	-0.127786	-0.415726	0.437901	0.756333	1.03953	0	0	-0.352355	-0.379544	-0.0797231	1.04073	1.5708	0	0
0.38	-0.0680651	1.34785	-1.39802	0.800827	1.34529	0.951669	-0.0017011	-0.145507	-0.221603	1.27347	-0.358167	0	0	-0.133307	-0.0407242	-0.408385	0.381957	-0.166894	0	0	-0.372168	0.000589666	-0.204161	-0.113679	-0.426478	0.462229	0.751247	1.02025	0	0	-0.333749	-0.382337	-0.0697335	1.03465	1.5708	0	0
0.39	-0.0923486	1.34713	-1.37068	0.801885	1.33652	0.95278	0.0269417	-0.142028	-0.219718	1.28511	-0.348598	0	0	-0.146969	-0.0459059	-0.404197	0.374533	-0.164771	0	0	-0.373366	0.00869205	-0.208828	-0.106458	-0.430947	0.469364	0.751039	1.01592	0	0	-0.321544	-0.389428	-0.0650458	1.03854	1.5708	0	0
